<svg width="231" height="193" viewBox="0 0 231 193" fill="none" xmlns="http://www.w3.org/2000/svg">
<g clip-path="url(#clip0_109_1794)">
<path d="M95.1178 45.4159H94.0697V16.6493C94.0697 14.4629 93.6398 12.2979 92.8047 10.2779C91.9695 8.25791 90.7454 6.4225 89.2022 4.87646C87.6591 3.33043 85.8271 2.10405 83.8108 1.26734C81.7946 0.430637 79.6336 -6.84028e-06 77.4512 0H16.6185C14.4361 -6.84028e-06 12.2751 0.430636 10.2589 1.26734C8.24261 2.10405 6.4106 3.33043 4.86743 4.87646C3.32426 6.4225 2.10015 8.25791 1.265 10.2779C0.429842 12.2979 -3.41382e-06 14.4629 0 16.6493V174.465C-2.04829e-06 176.651 0.429845 178.816 1.265 180.836C2.10016 182.856 3.32427 184.692 4.86743 186.238C6.4106 187.784 8.24261 189.01 10.2589 189.847C12.2751 190.684 14.4361 191.114 16.6185 191.114H77.4512C79.6336 191.114 81.7946 190.684 83.8108 189.847C85.8271 189.01 87.6591 187.784 89.2022 186.238C90.7454 184.692 91.9695 182.856 92.8047 180.836C93.6398 178.816 94.0697 176.651 94.0697 174.465V65.8925H95.1178V45.4159Z" fill="#E6E6E6"/>
<path d="M78.1217 4.33154H70.181C70.5461 5.22849 70.6855 6.20165 70.5869 7.16528C70.4882 8.12891 70.1545 9.05345 69.6152 9.85745C69.0759 10.6614 68.3475 11.3202 67.4942 11.7758C66.6408 12.2313 65.6888 12.4696 64.7219 12.4697H29.8716C28.9047 12.4696 27.9527 12.2313 27.0993 11.7758C26.246 11.3202 25.5176 10.6614 24.9783 9.85745C24.439 9.05345 24.1053 8.12891 24.0066 7.16528C23.908 6.20165 24.0474 5.22849 24.4125 4.33154H16.9959C15.3662 4.33154 13.7523 4.65314 12.2466 5.27798C10.7409 5.90282 9.37282 6.81867 8.2204 7.97323C7.06798 9.12778 6.15383 10.4984 5.53015 12.0069C4.90646 13.5155 4.58545 15.1323 4.58545 16.765V174.349C4.58545 175.982 4.90646 177.599 5.53014 179.107C6.15383 180.616 7.06798 181.986 8.22039 183.141C9.37281 184.296 10.7409 185.211 12.2466 185.836C13.7523 186.461 15.3662 186.783 16.9959 186.783H78.1217C79.7514 186.783 81.3652 186.461 82.8709 185.836C84.3766 185.211 85.7448 184.296 86.8972 183.141C88.0496 181.986 88.9637 180.616 89.5874 179.107C90.2111 177.599 90.5321 175.982 90.5321 174.349V16.765C90.5321 15.1323 90.2111 13.5155 89.5874 12.0069C88.9637 10.4984 88.0496 9.12778 86.8972 7.97323C85.7448 6.81867 84.3766 5.90282 82.8709 5.27798C81.3652 4.65314 79.7514 4.33154 78.1217 4.33154Z" fill="white"/>
<path d="M29.55 36.3667H25.9004C25.772 36.3667 25.649 36.4178 25.5582 36.5087C25.4675 36.5996 25.4165 36.7229 25.4165 36.8515V38.4564C25.4165 38.5849 25.4675 38.7082 25.5582 38.7992C25.649 38.8901 25.772 38.9411 25.9004 38.9411H26.5052V41.3458H28.9452V38.9411H29.55C29.6783 38.9411 29.8014 38.8901 29.8921 38.7992C29.9829 38.7082 30.0339 38.5849 30.0339 38.4564V36.8515C30.0339 36.7229 29.9829 36.5996 29.8921 36.5087C29.8014 36.4178 29.6783 36.3667 29.55 36.3667Z" fill="#E6E6E6"/>
<path d="M33.2055 51.0549C30.9704 47.7782 29.8277 43.8768 29.9413 39.9097C29.9433 39.8181 29.9137 39.7287 29.8574 39.6566C29.801 39.5845 29.7216 39.5341 29.6324 39.514V38.8206H25.7779V39.5044H25.7248C25.6199 39.5045 25.5193 39.5464 25.4453 39.6208C25.3712 39.6952 25.3297 39.7961 25.3298 39.9011C25.3298 39.9108 25.3302 39.9204 25.3309 39.93C25.6345 44.1708 24.6091 47.974 22.2547 51.3393C22.1192 51.5327 22.05 51.7649 22.0574 52.0011L22.4789 65.0626C22.489 65.3539 22.6111 65.6301 22.8196 65.8334C23.0281 66.0368 23.3069 66.1516 23.5978 66.1539H32.3161C32.6104 66.1515 32.8921 66.0341 33.1013 65.8266C33.3104 65.6192 33.4304 65.3381 33.4358 65.0434L33.5982 52.3617C33.603 51.8962 33.466 51.4404 33.2055 51.0549Z" fill="#E6E6E6"/>
<path d="M31.8255 55.3936H24.2369C24.1245 55.3936 24.0135 55.4179 23.9115 55.4649C23.8094 55.5119 23.7187 55.5804 23.6456 55.6659C23.5724 55.7513 23.5186 55.8515 23.4877 55.9597C23.4569 56.068 23.4497 56.1816 23.4668 56.2928L24.6136 63.7605H31.1983L32.5912 56.318C32.6123 56.2052 32.6084 56.0892 32.5796 55.9782C32.5509 55.8672 32.4981 55.7639 32.425 55.6756C32.3519 55.5874 32.2603 55.5163 32.1566 55.4676C32.053 55.4188 31.9399 55.3936 31.8255 55.3936Z" fill="white"/>
<path d="M70.1774 75.4941H66.5278C66.3995 75.4941 66.2764 75.5452 66.1857 75.6361C66.0949 75.727 66.0439 75.8503 66.0439 75.9789V77.5838C66.0439 77.7124 66.0949 77.8357 66.1857 77.9266C66.2764 78.0175 66.3995 78.0686 66.5278 78.0686H67.1326V80.4733H69.5726V78.0686H70.1774C70.3058 78.0686 70.4288 78.0175 70.5196 77.9266C70.6103 77.8357 70.6613 77.7124 70.6613 77.5838V75.9789C70.6613 75.8503 70.6103 75.727 70.5196 75.6361C70.4288 75.5452 70.3058 75.4941 70.1774 75.4941Z" fill="#E6E6E6"/>
<path d="M73.833 90.1821C71.5978 86.9054 70.4552 83.004 70.5687 79.0369C70.5707 78.9453 70.5411 78.8559 70.4848 78.7838C70.4285 78.7117 70.349 78.6613 70.2598 78.6412V77.9478H66.4053V78.6316H66.3522C66.3003 78.6317 66.2489 78.642 66.2009 78.662C66.153 78.6819 66.1094 78.7112 66.0727 78.748C66.036 78.7849 66.007 78.8286 65.9871 78.8767C65.9673 78.9248 65.9572 78.9763 65.9572 79.0283C65.9572 79.038 65.9576 79.0476 65.9583 79.0572C66.262 83.298 65.2366 87.1011 62.8821 90.4665C62.7466 90.6599 62.6774 90.8921 62.6849 91.1283L63.1063 104.19C63.1165 104.481 63.2385 104.757 63.447 104.961C63.6555 105.164 63.9343 105.279 64.2253 105.281H72.9436C73.2379 105.279 73.5196 105.161 73.7287 104.954C73.9378 104.746 74.0579 104.465 74.0632 104.171L74.2256 91.4889C74.2304 91.0234 74.0934 90.5676 73.833 90.1821Z" fill="#E6E6E6"/>
<path d="M72.4529 94.5208H64.8643C64.752 94.5208 64.641 94.5451 64.5389 94.5921C64.4368 94.6391 64.3461 94.7076 64.273 94.7931C64.1999 94.8785 64.146 94.9787 64.1152 95.0869C64.0843 95.1952 64.0772 95.3088 64.0943 95.42L65.241 102.888H71.8258L73.2187 95.4452C73.2398 95.3324 73.2358 95.2164 73.2071 95.1054C73.1783 94.9944 73.1255 94.8911 73.0524 94.8028C72.9793 94.7146 72.8877 94.6435 72.7841 94.5948C72.6804 94.546 72.5674 94.5208 72.4529 94.5208Z" fill="white"/>
<path d="M24.4192 130.809H22.688C22.6271 130.809 22.5688 130.833 22.5257 130.876C22.4827 130.919 22.4585 130.978 22.4585 131.039V131.8C22.4585 131.861 22.4827 131.919 22.5257 131.962C22.5688 132.006 22.6271 132.03 22.688 132.03H22.9749V133.17H24.1323V132.03H24.4192C24.4801 132.03 24.5385 132.006 24.5815 131.962C24.6245 131.919 24.6487 131.861 24.6487 131.8V131.039C24.6487 130.978 24.6245 130.919 24.5815 130.876C24.5385 130.833 24.4801 130.809 24.4192 130.809Z" fill="#E6E6E6"/>
<path d="M26.1531 137.776C25.0928 136.222 24.5508 134.371 24.6047 132.489C24.6056 132.446 24.5916 132.403 24.5649 132.369C24.5382 132.335 24.5004 132.311 24.4582 132.302V131.973H22.6298V132.297H22.6046C22.58 132.297 22.5556 132.302 22.5328 132.311C22.5101 132.321 22.4894 132.335 22.472 132.352C22.4546 132.37 22.4408 132.39 22.4314 132.413C22.422 132.436 22.4172 132.461 22.4172 132.485C22.4172 132.49 22.4174 132.494 22.4177 132.499C22.5865 134.419 22.0694 136.337 20.9586 137.911C20.8943 138.003 20.8615 138.113 20.865 138.225L21.0649 144.42C21.0697 144.559 21.1276 144.69 21.2265 144.786C21.3254 144.883 21.4577 144.937 21.5957 144.938H25.7312C25.8708 144.937 26.0044 144.881 26.1036 144.783C26.2028 144.684 26.2597 144.551 26.2623 144.411L26.3393 138.396C26.3416 138.175 26.2766 137.959 26.1531 137.776Z" fill="#E6E6E6"/>
<path d="M25.558 140.053H21.6121V142.03H25.558V140.053Z" fill="white"/>
<path d="M32.4778 130.809H30.7466C30.6857 130.809 30.6274 130.833 30.5843 130.876C30.5413 130.919 30.5171 130.978 30.5171 131.039V131.8C30.5171 131.861 30.5413 131.919 30.5843 131.962C30.6274 132.006 30.6857 132.03 30.7466 132.03H31.0335V133.17H32.1909V132.03H32.4778C32.5387 132.03 32.5971 132.006 32.6401 131.962C32.6831 131.919 32.7073 131.861 32.7073 131.8V131.039C32.7073 130.978 32.6831 130.919 32.6401 130.876C32.5971 130.833 32.5387 130.809 32.4778 130.809Z" fill="#E6E6E6"/>
<path d="M34.2119 137.776C33.1517 136.222 32.6097 134.371 32.6635 132.489C32.6645 132.446 32.6504 132.403 32.6237 132.369C32.597 132.335 32.5593 132.311 32.517 132.302V131.973H30.6886V132.297H30.6634C30.6388 132.297 30.6144 132.302 30.5917 132.311C30.5689 132.321 30.5482 132.335 30.5309 132.352C30.5135 132.37 30.4997 132.39 30.4903 132.413C30.4809 132.436 30.476 132.461 30.4761 132.485C30.4761 132.49 30.4762 132.494 30.4766 132.499C30.6453 134.419 30.1283 136.337 29.0174 137.911C28.9531 138.003 28.9203 138.113 28.9238 138.225L29.1238 144.42C29.1286 144.559 29.1864 144.69 29.2853 144.786C29.3842 144.883 29.5165 144.937 29.6545 144.938H33.79C33.9296 144.937 34.0632 144.881 34.1624 144.783C34.2616 144.684 34.3186 144.551 34.3211 144.411L34.3981 138.396C34.4004 138.175 34.3355 137.959 34.2119 137.776Z" fill="#E6E6E6"/>
<path d="M33.6168 140.053H29.6709V142.03H33.6168V140.053Z" fill="white"/>
<path d="M40.5366 130.809H38.8055C38.7446 130.809 38.6862 130.833 38.6432 130.876C38.6001 130.919 38.5759 130.978 38.5759 131.039V131.8C38.5759 131.861 38.6001 131.919 38.6432 131.962C38.6862 132.006 38.7446 132.03 38.8055 132.03H39.0923V133.17H40.2498V132.03H40.5366C40.5975 132.03 40.6559 132.006 40.6989 131.962C40.742 131.919 40.7662 131.861 40.7662 131.8V131.039C40.7662 130.978 40.742 130.919 40.6989 130.876C40.6559 130.833 40.5975 130.809 40.5366 130.809Z" fill="#E6E6E6"/>
<path d="M42.2705 137.776C41.2103 136.222 40.6682 134.371 40.7221 132.489C40.7231 132.446 40.709 132.403 40.6823 132.369C40.6556 132.335 40.6179 132.311 40.5756 132.302V131.973H38.7472V132.297H38.722C38.6974 132.297 38.673 132.302 38.6503 132.311C38.6275 132.321 38.6068 132.335 38.5894 132.352C38.572 132.37 38.5582 132.39 38.5489 132.413C38.5395 132.436 38.5346 132.461 38.5347 132.485C38.5347 132.49 38.5348 132.494 38.5352 132.499C38.7039 134.419 38.1868 136.337 37.076 137.911C37.0117 138.003 36.9789 138.113 36.9824 138.225L37.1823 144.42C37.1872 144.559 37.245 144.69 37.3439 144.786C37.4428 144.883 37.5751 144.937 37.7131 144.938H41.8486C41.9882 144.937 42.1218 144.881 42.221 144.783C42.3202 144.684 42.3772 144.551 42.3797 144.411L42.4567 138.396C42.459 138.175 42.394 137.959 42.2705 137.776Z" fill="#E6E6E6"/>
<path d="M41.6754 140.053H37.7295V142.03H41.6754V140.053Z" fill="white"/>
<path d="M63.8374 115.672H60.1877C60.1242 115.672 60.0613 115.684 60.0026 115.709C59.9439 115.733 59.8905 115.769 59.8456 115.814C59.8007 115.859 59.765 115.912 59.7407 115.971C59.7164 116.03 59.7039 116.093 59.7039 116.157V117.762C59.7039 117.89 59.7548 118.013 59.8456 118.104C59.9363 118.195 60.0594 118.246 60.1877 118.246H60.7925V120.651H63.2326V118.246H63.8374C63.9657 118.246 64.0888 118.195 64.1795 118.104C64.2702 118.013 64.3212 117.89 64.3212 117.762V116.157C64.3212 116.093 64.3087 116.03 64.2844 115.971C64.2601 115.912 64.2244 115.859 64.1795 115.814C64.1346 115.769 64.0812 115.733 64.0225 115.709C63.9638 115.684 63.9009 115.672 63.8374 115.672Z" fill="#E6E6E6"/>
<path d="M67.4929 130.36C65.2577 127.083 64.1151 123.182 64.2286 119.215C64.2307 119.123 64.201 119.034 64.1447 118.962C64.0884 118.89 64.0089 118.839 63.9197 118.819V118.126H60.0653V118.81H60.0121C59.9602 118.81 59.9088 118.82 59.8608 118.84C59.8129 118.86 59.7693 118.889 59.7326 118.926C59.6959 118.963 59.6669 119.007 59.6471 119.055C59.6272 119.103 59.6171 119.154 59.6171 119.206C59.6172 119.216 59.6175 119.226 59.6182 119.235C59.9219 123.476 58.8965 127.279 56.5421 130.644C56.4066 130.838 56.3373 131.07 56.3448 131.306L56.7663 144.368C56.7764 144.659 56.8984 144.935 57.1069 145.139C57.3154 145.342 57.5942 145.457 57.8852 145.459H66.6035C66.8978 145.457 67.1795 145.339 67.3886 145.132C67.5977 144.924 67.7178 144.643 67.7231 144.349L67.8855 131.667C67.8903 131.201 67.7534 130.746 67.4929 130.36Z" fill="#E6E6E6"/>
<path d="M66.1126 134.699H58.524C58.4116 134.699 58.3006 134.723 58.1986 134.77C58.0965 134.817 58.0058 134.886 57.9327 134.971C57.8595 135.056 57.8057 135.157 57.7748 135.265C57.744 135.373 57.7369 135.487 57.7539 135.598L58.9007 143.066H65.4854L66.8783 135.623C66.8994 135.51 66.8955 135.394 66.8667 135.283C66.838 135.172 66.7852 135.069 66.7121 134.981C66.639 134.893 66.5474 134.822 66.4437 134.773C66.3401 134.724 66.2271 134.699 66.1126 134.699Z" fill="white"/>
<path d="M65.8298 67.8354H44.0745C45.5955 59.5968 45.2455 49.6483 44.0745 38.9495H65.8298C64.6899 49.6484 64.3492 59.5968 65.8298 67.8354Z" fill="#E6E6E6"/>
<path d="M55.0831 57.8565C57.9783 57.8565 60.3253 55.5051 60.3253 52.6045C60.3253 49.7039 57.9783 47.3525 55.0831 47.3525C52.1879 47.3525 49.8408 49.7039 49.8408 52.6045C49.8408 55.5051 52.1879 57.8565 55.0831 57.8565Z" fill="white"/>
<path d="M45.9091 106.175H24.1538C25.6748 97.9361 25.3249 87.9877 24.1538 77.2888H45.9091C44.7692 87.9877 44.4286 97.9362 45.9091 106.175Z" fill="#E6E6E6"/>
<path d="M35.1627 96.1961C38.0579 96.1961 40.4049 93.8447 40.4049 90.9441C40.4049 88.0435 38.0579 85.6921 35.1627 85.6921C32.2674 85.6921 29.9204 88.0435 29.9204 90.9441C29.9204 93.8447 32.2674 96.1961 35.1627 96.1961Z" fill="white"/>
<path d="M78.1491 69.6736H56.3938C57.9148 61.4349 57.5649 51.4865 56.3938 40.7876H78.1491C77.0092 51.4865 76.6686 61.4349 78.1491 69.6736Z" fill="#E6E6E6"/>
<path d="M67.4024 59.6947C70.2976 59.6947 72.6447 57.3433 72.6447 54.4427C72.6447 51.5421 70.2976 49.1907 67.4024 49.1907C64.5072 49.1907 62.1602 51.5421 62.1602 54.4427C62.1602 57.3433 64.5072 59.6947 67.4024 59.6947Z" fill="white"/>
<path d="M78.1491 68.3606H56.3938C57.9148 60.1219 57.5649 50.1735 56.3938 39.4746H78.1491C77.0092 50.1735 76.6686 60.1219 78.1491 68.3606Z" fill="#E6E6E6"/>
<path d="M67.4024 58.3817C70.2976 58.3817 72.6447 56.0303 72.6447 53.1297C72.6447 50.2291 70.2976 47.8777 67.4024 47.8777C64.5072 47.8777 62.1602 50.2291 62.1602 53.1297C62.1602 56.0303 64.5072 58.3817 67.4024 58.3817Z" fill="white"/>
<path d="M78.1491 69.6736H56.3938C57.9148 61.4349 57.5649 51.4865 56.3938 40.7876H78.1491C77.0092 51.4865 76.6686 61.4349 78.1491 69.6736Z" fill="#E6E6E6"/>
<path d="M67.4024 59.6947C70.2976 59.6947 72.6447 57.3433 72.6447 54.4427C72.6447 51.5421 70.2976 49.1907 67.4024 49.1907C64.5072 49.1907 62.1602 51.5421 62.1602 54.4427C62.1602 57.3433 64.5072 59.6947 67.4024 59.6947Z" fill="white"/>
<path d="M83.129 66.2598H11.8345V74.1378H83.129V66.2598Z" fill="#E6E6E6"/>
<path d="M83.129 105.387H11.8345V113.265H83.129V105.387Z" fill="#E6E6E6"/>
<path d="M83.129 144.514H11.8345V152.392H83.129V144.514Z" fill="#E6E6E6"/>
<path d="M207.149 176.475L189.387 163.889C195.378 158.043 200.826 149.718 206.037 140.306L223.798 152.892C216.701 160.967 210.689 168.892 207.149 176.475Z" fill="#118A25"/>
<path d="M207.154 163.075C210.049 163.075 212.396 160.724 212.396 157.823C212.396 154.922 210.049 152.571 207.154 152.571C204.259 152.571 201.912 154.922 201.912 157.823C201.912 160.724 204.259 163.075 207.154 163.075Z" fill="white"/>
<path d="M121.469 119.042H119.519C119.451 119.042 119.385 119.07 119.336 119.118C119.288 119.167 119.261 119.233 119.261 119.301V120.159C119.261 120.193 119.267 120.226 119.28 120.258C119.293 120.289 119.312 120.318 119.336 120.342C119.36 120.366 119.389 120.385 119.42 120.398C119.452 120.411 119.485 120.418 119.519 120.418H119.842V121.702H121.146V120.418H121.469C121.537 120.418 121.603 120.39 121.652 120.342C121.7 120.293 121.727 120.227 121.727 120.159V119.301C121.727 119.233 121.7 119.167 121.652 119.118C121.603 119.07 121.537 119.042 121.469 119.042Z" fill="#E6E6E6"/>
<path d="M123.422 126.889C122.228 125.138 121.617 123.054 121.678 120.935C121.679 120.886 121.663 120.838 121.633 120.8C121.603 120.761 121.56 120.734 121.513 120.723V120.353H119.454V120.718H119.425C119.398 120.718 119.37 120.724 119.344 120.735C119.319 120.745 119.296 120.761 119.276 120.781C119.256 120.8 119.241 120.824 119.23 120.849C119.22 120.875 119.214 120.902 119.214 120.93C119.214 120.935 119.214 120.941 119.215 120.946C119.405 123.108 118.823 125.268 117.571 127.041C117.499 127.144 117.462 127.268 117.466 127.394L117.691 134.372C117.697 134.528 117.762 134.675 117.873 134.784C117.985 134.892 118.134 134.954 118.289 134.955H122.946C123.104 134.954 123.254 134.891 123.366 134.78C123.478 134.669 123.542 134.519 123.545 134.362L123.631 127.587C123.634 127.338 123.561 127.095 123.422 126.889Z" fill="#118A25"/>
<path opacity="0.2" d="M121.062 119.322C121.062 119.47 121.004 119.612 120.899 119.717C120.794 119.821 120.653 119.88 120.505 119.88C120.357 119.88 120.215 119.821 120.11 119.717C120.006 119.612 119.947 119.47 119.947 119.322" fill="black"/>
<path d="M122.514 128.233H118.583V130.859H122.514V128.233Z" fill="white"/>
<path d="M183.167 146.301H179.518C179.389 146.301 179.266 146.352 179.176 146.443C179.085 146.534 179.034 146.657 179.034 146.786V148.391C179.034 148.519 179.085 148.643 179.176 148.733C179.266 148.824 179.389 148.875 179.518 148.875H180.123V151.28H182.563V148.875H183.167C183.296 148.875 183.419 148.824 183.51 148.733C183.6 148.643 183.651 148.519 183.651 148.391V146.786C183.651 146.657 183.6 146.534 183.51 146.443C183.419 146.352 183.296 146.301 183.167 146.301Z" fill="#E6E6E6"/>
<path d="M186.823 160.989C184.588 157.713 183.445 153.811 183.559 149.844C183.561 149.752 183.531 149.663 183.475 149.591C183.418 149.519 183.339 149.468 183.25 149.448V148.755H179.395V149.439H179.342C179.29 149.439 179.239 149.449 179.191 149.469C179.143 149.489 179.099 149.518 179.063 149.555C179.026 149.592 178.997 149.636 178.977 149.684C178.957 149.732 178.947 149.783 178.947 149.835C178.947 149.845 178.948 149.855 178.948 149.864C179.252 154.105 178.227 157.908 175.872 161.274C175.737 161.467 175.667 161.699 175.675 161.935L176.096 174.997C176.106 175.288 176.229 175.564 176.437 175.768C176.645 175.971 176.924 176.086 177.215 176.088H185.934C186.228 176.086 186.51 175.968 186.719 175.761C186.928 175.554 187.048 175.272 187.053 174.978L187.216 162.296C187.22 161.831 187.083 161.375 186.823 160.989Z" fill="#118A25"/>
<path opacity="0.2" d="M182.406 146.824C182.406 147.101 182.296 147.367 182.101 147.564C181.905 147.76 181.639 147.87 181.363 147.87C181.086 147.87 180.82 147.76 180.624 147.564C180.429 147.367 180.319 147.101 180.319 146.824" fill="black"/>
<path d="M185.443 165.328H177.854C177.742 165.328 177.631 165.352 177.529 165.399C177.427 165.446 177.336 165.515 177.263 165.6C177.19 165.686 177.136 165.786 177.105 165.894C177.074 166.002 177.067 166.116 177.084 166.227L178.231 173.695H184.816L186.208 166.252C186.23 166.14 186.226 166.024 186.197 165.913C186.168 165.802 186.115 165.698 186.042 165.61C185.969 165.522 185.877 165.451 185.774 165.402C185.67 165.353 185.557 165.328 185.443 165.328Z" fill="white"/>
<path d="M172.754 176.455H150.999C152.52 168.216 152.17 158.267 150.999 147.569H172.754C171.614 158.268 171.274 168.216 172.754 176.455Z" fill="#118A25"/>
<path d="M162.008 166.476C164.903 166.476 167.25 164.124 167.25 161.224C167.25 158.323 164.903 155.972 162.008 155.972C159.113 155.972 156.766 158.323 156.766 161.224C156.766 164.124 159.113 166.476 162.008 166.476Z" fill="white"/>
<path d="M83.7698 85.5464L88.6536 85.1015L91.7617 77.5399L86.2118 74.426L83.7698 85.5464Z" fill="#FFB8B8"/>
<path d="M128.591 106.306C128.753 105.9 128.817 105.461 128.777 105.026C128.737 104.591 128.595 104.171 128.361 103.802C128.127 103.433 127.809 103.124 127.434 102.902C127.058 102.68 126.635 102.551 126.199 102.525L118.616 102.072L117.5 105.791L125.306 107.939C125.958 108.119 126.653 108.051 127.259 107.75C127.865 107.449 128.339 106.935 128.591 106.306Z" fill="#FFB8B8"/>
<path d="M120.449 108.002L120.365 101.022L103.522 98.3296L90.5459 83.4199C89.8708 82.6442 88.9379 82.1399 87.9201 82.0004C86.9023 81.861 85.8685 82.0959 85.0103 82.6615C84.4907 83.004 84.0525 83.4567 83.7267 83.9875C83.4009 84.5183 83.1954 85.1144 83.1248 85.7335C83.0543 86.3526 83.1203 86.9797 83.3182 87.5705C83.5162 88.1612 83.8412 88.7012 84.2704 89.1523L94.9754 102.351L120.449 108.002Z" fill="#575A89"/>
<path d="M79.9958 186.52H84.4358L95.4484 136.636L106.857 152.046L113.517 185.408H117.735L116.847 149.6L101.973 111.346H87.3217C83.3178 118.605 80.1768 126.089 83.7698 133.809L79.9958 186.52Z" fill="#2F2E41"/>
<path d="M110.795 189.55C110.746 189.707 110.731 189.873 110.751 190.037C110.771 190.2 110.826 190.358 110.911 190.499C110.997 190.64 111.111 190.761 111.247 190.854C111.383 190.947 111.537 191.01 111.699 191.039L122.563 192.971C122.993 193.049 123.436 192.968 123.81 192.742C124.183 192.516 124.461 192.16 124.591 191.743C124.718 191.344 124.7 190.913 124.541 190.526C124.382 190.139 124.093 189.821 123.722 189.627C121.334 188.398 119.278 186.607 117.731 184.408C116.537 185.522 115.202 185.417 113.785 184.596L112.282 184.784L110.795 189.55Z" fill="#2F2E41"/>
<path d="M77.9402 189.55C77.8911 189.707 77.876 189.873 77.896 190.037C77.916 190.2 77.9705 190.358 78.056 190.499C78.1415 190.64 78.2559 190.761 78.3918 190.854C78.5276 190.947 78.6817 191.01 78.8437 191.039L89.7082 192.971C90.1375 193.049 90.5807 192.968 90.9543 192.742C91.3278 192.516 91.6059 192.16 91.7361 191.743C91.8627 191.344 91.845 190.913 91.6861 190.526C91.5273 190.139 91.2373 189.821 90.8673 189.627C88.4784 188.398 86.4225 186.607 84.8757 184.408C83.6816 185.522 82.347 185.417 80.9297 184.596L79.4265 184.784L77.9402 189.55Z" fill="#2F2E41"/>
<path d="M91.8726 80.3199C95.3056 80.3199 98.0885 77.5317 98.0885 74.0924C98.0885 70.6531 95.3056 67.865 91.8726 67.865C88.4397 67.865 85.6567 70.6531 85.6567 74.0924C85.6567 77.5317 88.4397 80.3199 91.8726 80.3199Z" fill="#FFB8B8"/>
<path d="M86.3226 113.014L102.528 112.569L97.7691 97.5624C100.727 92.8121 97.7501 88.0666 93.5375 83.3222L90.2076 81.0981L84.8797 80.6533C82.5729 83.1262 81.3107 86.3975 81.3575 89.7819C81.4629 97.0291 82.7438 104.918 86.3226 113.014Z" fill="#575A89"/>
<path d="M123.556 123.115C123.865 122.806 124.095 122.428 124.23 122.012C124.364 121.596 124.397 121.154 124.327 120.722C124.258 120.291 124.087 119.882 123.828 119.53C123.57 119.178 123.231 118.892 122.841 118.696L116.048 115.291L113.561 118.271L119.894 123.322C120.423 123.744 121.089 123.957 121.764 123.918C122.44 123.88 123.078 123.594 123.556 123.115Z" fill="#FFB8B8"/>
<path d="M115.404 121.465L118.068 115.016L103.64 105.902L97.5648 87.0801C97.2487 86.1009 96.5891 85.2696 95.7081 84.7402C94.827 84.2109 93.7844 84.0194 92.7733 84.2012C92.1611 84.3113 91.5805 84.5548 91.0725 84.9144C90.5645 85.274 90.1416 85.741 89.8336 86.2824C89.5256 86.8238 89.3401 87.4263 89.2901 88.0475C89.2401 88.6686 89.3269 89.2931 89.5444 89.877L94.2037 106.23L115.404 121.465Z" fill="#575A89"/>
<path d="M81.6609 71.6458C81.6609 74.069 83.2316 77.8215 85.2128 79.4301C86.5458 80.5125 88.3075 80.4669 88.9867 78.9853C89.6835 77.4655 92.0853 73.8931 96.3126 71.6458C101.948 68.6501 94.3141 63.5249 88.9867 64.3064C84.9835 64.8936 81.6609 67.5924 81.6609 71.6458Z" fill="#2F2E41"/>
<path d="M85.4348 68.3097C87.8869 68.3097 89.8747 66.3182 89.8747 63.8615C89.8747 61.4048 87.8869 59.4133 85.4348 59.4133C82.9827 59.4133 80.9949 61.4048 80.9949 63.8615C80.9949 66.3182 82.9827 68.3097 85.4348 68.3097Z" fill="#2F2E41"/>
<path d="M90.5408 62.3046C90.5403 61.1832 90.1168 60.1034 89.3552 59.2816C88.5936 58.4598 87.5501 57.9567 86.4338 57.8733C86.5442 57.8651 86.6544 57.8564 86.7668 57.8564C87.9444 57.8564 89.0737 58.3251 89.9063 59.1593C90.739 59.9935 91.2067 61.1249 91.2067 62.3046C91.2067 63.4843 90.739 64.6157 89.9063 65.4499C89.0737 66.2841 87.9444 66.7528 86.7668 66.7528C86.6544 66.7528 86.5442 66.7442 86.4338 66.7359C87.5501 66.6525 88.5936 66.1494 89.3552 65.3276C90.1168 64.5058 90.5403 63.426 90.5408 62.3046Z" fill="#2F2E41"/>
<path d="M91.9836 76.3164C92.5353 76.3164 92.9826 75.7189 92.9826 74.9819C92.9826 74.2449 92.5353 73.6475 91.9836 73.6475C91.4319 73.6475 90.9846 74.2449 90.9846 74.9819C90.9846 75.7189 91.4319 76.3164 91.9836 76.3164Z" fill="#FFB8B8"/>
<path d="M217.78 178.362H148.665L134.029 109.045H121.538V105.935H136.545L151.181 175.252H217.78V178.362Z" fill="#3F3D56"/>
<path d="M158.793 191.026C162.468 191.026 165.446 188.042 165.446 184.361C165.446 180.68 162.468 177.696 158.793 177.696C155.119 177.696 152.141 180.68 152.141 184.361C152.141 188.042 155.119 191.026 158.793 191.026Z" fill="#3F3D56"/>
<path d="M208.467 191.026C212.141 191.026 215.119 188.042 215.119 184.361C215.119 180.68 212.141 177.696 208.467 177.696C204.792 177.696 201.814 180.68 201.814 184.361C201.814 188.042 204.792 191.026 208.467 191.026Z" fill="#3F3D56"/>
<path d="M216.52 176.897H149.275L137.41 118.154H227.655C228.115 118.154 228.57 118.254 228.989 118.447C229.407 118.64 229.778 118.922 230.078 119.273C230.377 119.623 230.597 120.035 230.722 120.478C230.848 120.922 230.876 121.388 230.805 121.844L219.67 174.199C219.555 174.953 219.174 175.639 218.595 176.135C218.017 176.63 217.281 176.901 216.52 176.897ZM150.005 176.009H216.52C217.069 176.011 217.601 175.816 218.018 175.458C218.435 175.101 218.71 174.605 218.793 174.061L229.928 121.706C229.98 121.377 229.959 121.041 229.869 120.72C229.778 120.4 229.62 120.103 229.404 119.85C229.188 119.597 228.919 119.394 228.618 119.254C228.316 119.115 227.987 119.043 227.655 119.043H138.487L150.005 176.009Z" fill="#3F3D56"/>
<path d="M162.348 176.71L154.577 118.671L155.452 118.526L163.223 176.565L162.348 176.71Z" fill="#3F3D56"/>
<path d="M205.552 176.264L204.677 176.122L212.22 118.528L213.096 118.67L205.552 176.264Z" fill="#3F3D56"/>
<path d="M184.968 118.599H184.081V176.637H184.968V118.599Z" fill="#3F3D56"/>
<path d="M141.941 134.151L141.939 135.039L227.802 135.248L227.804 134.359L141.941 134.151Z" fill="#3F3D56"/>
<path d="M221.745 161.603L146.312 162.119L146.318 163.008L221.751 162.491L221.745 161.603Z" fill="#3F3D56"/>
<path d="M122.869 109.712C125.563 109.712 127.747 108.518 127.747 107.046C127.747 105.574 125.563 104.38 122.869 104.38C120.174 104.38 117.99 105.574 117.99 107.046C117.99 108.518 120.174 109.712 122.869 109.712Z" fill="#3F3D56"/>
</g>
<defs>
<clipPath id="clip0_109_1794">
<rect width="230.843" height="193" fill="white"/>
</clipPath>
</defs>
</svg>
